Coordinates
version=1
nRows=27
nColumns=12
inDegrees=yes

Units are S.I. units (second, meters, Newtons, ...)
Angles are in degrees

endheader
time	SC_y	SC_z	SC_x	AC_y	AC_z	AC_x	GH_y	GH_z	GH_yy	EL_x	PS_y
       0.0              -20.43         -1.995          25.72          56.44         -15.51        -0.3392         -98.21          46.08         -2.196          45.95          108.3
   0.01527              -20.43         -1.994          25.72          56.43          -15.5        -0.3366         -98.21          46.08          -2.17          45.95          108.3
   0.03054              -20.44         -1.992          25.71          56.43          -15.5        -0.3338         -98.21          46.08         -2.144          45.96          108.3
   0.04581              -20.44         -1.991          25.71          56.43          -15.5        -0.3309         -98.21          46.09         -2.115          45.96          108.3
   0.06108              -20.45         -1.989          25.71          56.42         -15.49        -0.3277         -98.21          46.09         -2.084          45.97          108.3
   0.07635              -20.45         -1.987           25.7          56.42         -15.49        -0.3244         -98.22           46.1         -2.052          45.97          108.3
   0.09162              -20.45         -1.985           25.7          56.42         -15.49        -0.3208         -98.22           46.1         -2.017          45.98          108.3
    0.1069              -20.46         -1.983          25.69          56.41         -15.48         -0.317         -98.22          46.11          -1.98          45.98          108.3
    0.1222              -20.46         -1.981          25.69          56.41         -15.48        -0.3129         -98.22          46.11          -1.94          45.99          108.3
    0.1374              -20.47         -1.979          25.68           56.4         -15.47        -0.3085         -98.22          46.12         -1.898          45.99          108.3
    0.1527              -20.48         -1.976          25.67           56.4         -15.47        -0.3038         -98.22          46.12         -1.852           46.0          108.2
     0.168              -20.48         -1.973          25.67          56.39         -15.46        -0.2987         -98.22          46.13         -1.802          46.01          108.2
    0.1832              -20.49          -1.97          25.66          56.39         -15.46        -0.2932         -98.22          46.14         -1.749          46.01          108.2
    0.1985               -20.5         -1.967          25.65          56.38         -15.45        -0.2873         -98.22          46.14         -1.692          46.02          108.2
    0.2138              -20.51         -1.963          25.64          56.38         -15.44        -0.2809         -98.22          46.15          -1.63          46.03          108.2
    0.2291              -20.51          -1.96          25.63          56.37         -15.43         -0.274         -98.22          46.16         -1.562          46.04          108.2
    0.2443              -20.52         -1.956          25.62          56.36         -15.42        -0.2664         -98.22          46.17         -1.489          46.05          108.1
    0.2596              -20.53         -1.951          25.61          56.35         -15.42        -0.2582         -98.22          46.18         -1.409          46.07          108.1
    0.2749              -20.55         -1.946           25.6          56.34          -15.4        -0.2492         -98.22          46.19         -1.322          46.08          108.1
    0.2901              -20.56         -1.941          25.58          56.33         -15.39        -0.2394         -98.22           46.2         -1.227          46.09          108.1
    0.3054              -20.57         -1.935          25.57          56.32         -15.38        -0.2286         -98.22          46.22         -1.122          46.11          108.0
    0.3207              -20.59         -1.928          25.55          56.31         -15.37        -0.2168         -98.22          46.23         -1.007          46.12          108.0
     0.336               -20.6         -1.921          25.53           56.3         -15.35        -0.2036         -98.23          46.25        -0.8795          46.14          108.0
    0.3512              -20.62         -1.913          25.51          56.28         -15.34        -0.1891         -98.23          46.27        -0.7385          46.16          107.9
    0.3665              -20.64         -1.904          25.49          56.26         -15.32         -0.173         -98.23          46.29        -0.5816          46.19          107.9
    0.3818              -20.67         -1.895          25.46          56.25          -15.3        -0.1549         -98.23          46.31        -0.4067          46.21          107.9
     0.397              -20.69         -1.884          25.43          56.22         -15.27        -0.1348         -98.23          46.34        -0.2106          46.24          107.8
